<?xml version="1.0" encoding="UTF-8" standalone="no"?>
<!-- Created with Inkscape (http://www.inkscape.org/) -->

<svg
   xmlns:dc="http://purl.org/dc/elements/1.1/"
   xmlns:cc="http://creativecommons.org/ns#"
   xmlns:rdf="http://www.w3.org/1999/02/22-rdf-syntax-ns#"
   xmlns:svg="http://www.w3.org/2000/svg"
   xmlns="http://www.w3.org/2000/svg"
   xmlns:xlink="http://www.w3.org/1999/xlink"
   xmlns:sodipodi="http://sodipodi.sourceforge.net/DTD/sodipodi-0.dtd"
   xmlns:inkscape="http://www.inkscape.org/namespaces/inkscape"
   width="2104.7244"
   height="2979.9211"
   id="svg2"
   version="1.1"
   inkscape:version="0.48.3.1 r9886"
   sodipodi:docname="Fondo.svg">
  <defs
     id="defs4">
    <linearGradient
       id="linearGradient3939">
      <stop
         style="stop-color:#c8bf1b;stop-opacity:0.38787878;"
         offset="0"
         id="stop3941" />
      <stop
         style="stop-color:#b67525;stop-opacity:0.41212121;"
         offset="1"
         id="stop3943" />
    </linearGradient>
    <linearGradient
       id="linearGradient3923">
      <stop
         style="stop-color:#ff0000;stop-opacity:1;"
         offset="0"
         id="stop3925" />
      <stop
         style="stop-color:#ff0000;stop-opacity:0;"
         offset="1"
         id="stop3927" />
    </linearGradient>
    <mask
       maskUnits="userSpaceOnUse"
       x="0"
       y="0"
       width="1"
       height="1"
       id="mask22">
      <g
         id="g24">
        <g
           clip-path="url(#clipPath18)"
           id="g26">
          <path
             inkscape:connector-curvature="0"
             d="m 0,-0.277802 136,0 0,193.000002 -136,0 0,-193.000002 z"
             style="fill:#000000;fill-opacity:0.34892099;fill-rule:nonzero;stroke:none"
             id="path28" />
        </g>
      </g>
    </mask>
    <clipPath
       clipPathUnits="userSpaceOnUse"
       id="clipPath18">
      <path
         inkscape:connector-curvature="0"
         d="m 0,-0.277802 136,0 0,193.000002 -136,0 0,-193.000002 z"
         id="path20" />
    </clipPath>
    <clipPath
       clipPathUnits="userSpaceOnUse"
       id="clipPath34">
      <path
         inkscape:connector-curvature="0"
         d="m 0,-0.277802 136,0 0,193.000002 -136,0 0,-193.000002 z"
         id="path36" />
    </clipPath>
    <clipPath
       clipPathUnits="userSpaceOnUse"
       id="clipPath38">
      <path
         inkscape:connector-curvature="0"
         d="M 0,0 136,0 136,193 0,193 0,0 z"
         id="path40" />
    </clipPath>
    <clipPath
       clipPathUnits="userSpaceOnUse"
       id="clipPath24">
      <path
         inkscape:connector-curvature="0"
         d="M 0,612 792,612 792,0 0,0 0,612 z"
         id="path26" />
    </clipPath>
    <linearGradient
       inkscape:collect="always"
       xlink:href="#linearGradient3939"
       id="linearGradient3945"
       x1="1040"
       y1="-20.078857"
       x2="1055"
       y2="2969.9211"
       gradientUnits="userSpaceOnUse"
       gradientTransform="matrix(1.2894229,0,0,1.2963411,-8.9176278,-1948.0906)" />
    <linearGradient
       inkscape:collect="always"
       xlink:href="#linearGradient3939-9"
       id="linearGradient3945-1"
       x1="1040"
       y1="-20.078857"
       x2="1055"
       y2="2969.9211"
       gradientUnits="userSpaceOnUse" />
    <linearGradient
       id="linearGradient3939-9">
      <stop
         style="stop-color:#c8bf1b;stop-opacity:0.38787878;"
         offset="0"
         id="stop3941-4" />
      <stop
         style="stop-color:#b67525;stop-opacity:0.41212121;"
         offset="1"
         id="stop3943-8" />
    </linearGradient>
  </defs>
  <sodipodi:namedview
     id="base"
     pagecolor="#ffffff"
     bordercolor="#666666"
     borderopacity="1.0"
     inkscape:pageopacity="0.0"
     inkscape:pageshadow="2"
     inkscape:zoom="0.2"
     inkscape:cx="1346.6214"
     inkscape:cy="2270.5163"
     inkscape:document-units="px"
     inkscape:current-layer="layer1"
     showgrid="false"
     inkscape:window-width="1535"
     inkscape:window-height="876"
     inkscape:window-x="65"
     inkscape:window-y="24"
     inkscape:window-maximized="1" />
  <metadata
     id="metadata7">
    <rdf:RDF>
      <cc:Work
         rdf:about="">
        <dc:format>image/svg+xml</dc:format>
        <dc:type
           rdf:resource="http://purl.org/dc/dcmitype/StillImage" />
        <dc:title></dc:title>
      </cc:Work>
    </rdf:RDF>
  </metadata>
  <g
     inkscape:label="Capa 1"
     inkscape:groupmode="layer"
     id="layer1"
     transform="translate(0,1927.5591)">
    <rect
       style="fill:url(#linearGradient3945);fill-opacity:1;fill-rule:evenodd;stroke:none"
       id="rect3141"
       width="2765.812"
       height="3914.9507"
       x="-28.25897"
       y="-1967.6379" />
    <g
       transform="matrix(14.108211,-4.4145523,-4.4145523,-14.108211,-1658.265,6363.1876)"
       clip-path="url(#clipPath24)"
       id="g22"
       style="opacity:0.30215827">
      <g
         transform="translate(300.3691,361.9521)"
         id="g40">
        <path
           inkscape:connector-curvature="0"
           id="path42"
           style="fill:#104076;fill-opacity:1;fill-rule:nonzero;stroke:none"
           d="m 0,0 -16.987,-12.688 13.847,0 0.001,0 0.198,-0.002 0.054,0 c 0.005,0 0.008,0.002 0.012,0.002 l 8.301,0 L 11.851,8.851 0,0 z" />
      </g>
      <g
         transform="translate(281.189,340.8711)"
         id="g44">
        <path
           inkscape:connector-curvature="0"
           id="path46"
           style="fill:#104076;fill-opacity:1;fill-rule:nonzero;stroke:none"
           d="M 0,0 C -0.114,0.222 -0.222,0.445 -0.325,0.672 -0.439,0.923 -0.544,1.178 -0.644,1.436 -0.735,1.67 -0.821,1.905 -0.9,2.145 -0.986,2.406 -1.062,2.671 -1.133,2.938 -1.199,3.184 -1.261,3.431 -1.314,3.681 -1.372,3.951 -1.416,4.224 -1.458,4.498 -1.497,4.756 -1.535,5.013 -1.56,5.275 -1.569,5.371 -1.59,5.464 -1.598,5.562 l -49.829,-37.218 102.535,0.008 -30.9,22.632 c -0.086,-0.021 -0.175,-0.037 -0.262,-0.057 -0.134,-0.031 -0.269,-0.061 -0.405,-0.088 -0.177,-0.036 -0.357,-0.067 -0.537,-0.096 -0.137,-0.022 -0.273,-0.045 -0.411,-0.064 -0.199,-0.027 -0.402,-0.046 -0.604,-0.065 -0.121,-0.01 -0.24,-0.025 -0.362,-0.033 -0.284,-0.019 -0.571,-0.029 -0.86,-0.031 -0.041,-0.001 -0.08,-0.005 -0.121,-0.005 l -0.021,0 -0.001,0 -10e-4,0 c -0.613,10e-4 -1.218,0.03 -1.816,0.083 -0.192,0.017 -0.378,0.051 -0.569,0.073 -0.402,0.047 -0.805,0.092 -1.199,0.162 -0.226,0.039 -0.444,0.096 -0.666,0.144 -0.351,0.074 -0.702,0.144 -1.044,0.235 -0.235,0.063 -0.461,0.142 -0.692,0.212 -0.319,0.098 -0.64,0.192 -0.951,0.305 -0.235,0.085 -0.46,0.184 -0.689,0.278 -0.296,0.119 -0.592,0.236 -0.879,0.37 -0.228,0.106 -0.446,0.224 -0.668,0.338 -0.275,0.141 -0.551,0.28 -0.817,0.434 -0.217,0.125 -0.425,0.26 -0.635,0.394 -0.255,0.16 -0.51,0.321 -0.755,0.493 -0.205,0.144 -0.401,0.297 -0.599,0.449 -0.234,0.179 -0.466,0.359 -0.689,0.547 -0.191,0.162 -0.372,0.331 -0.555,0.5 -0.212,0.196 -0.422,0.394 -0.623,0.6 -0.174,0.178 -0.339,0.361 -0.504,0.546 -0.19,0.213 -0.376,0.427 -0.554,0.648 -0.155,0.193 -0.302,0.391 -0.448,0.59 -0.166,0.228 -0.327,0.457 -0.48,0.692 -0.136,0.208 -0.264,0.419 -0.39,0.633 C 0.261,-0.49 0.127,-0.247 0,0" />
      </g>
      <g
         transform="translate(279.1021,474.3433)"
         id="g48">
        <path
           inkscape:connector-curvature="0"
           id="path50"
           style="fill:#bdc5de;fill-opacity:1;fill-rule:nonzero;stroke:none"
           d="m 0,0 c -12.815,-2.257 -30.371,-13.344 -44.974,-30.562 -15.23,-17.921 -27.326,-42.433 -28.092,-70.423 0.45,-23.803 8.201,-45.958 20.534,-62.514 l 14.12,43.946 L 0,0 z" />
      </g>
      <g
         transform="translate(281.627,346.2051)"
         id="g52">
        <path
           inkscape:connector-curvature="0"
           id="path54"
           style="fill:#bdc5de;fill-opacity:1;fill-rule:nonzero;stroke:none"
           d="m 0,0 c 0.019,-0.176 0.053,-0.35 0.08,-0.524 0.043,-0.279 0.085,-0.559 0.147,-0.832 0.041,-0.183 0.094,-0.36 0.143,-0.54 0.07,-0.26 0.142,-0.52 0.229,-0.774 0.062,-0.183 0.135,-0.362 0.206,-0.542 0.095,-0.243 0.193,-0.485 0.303,-0.722 0.084,-0.181 0.177,-0.358 0.27,-0.536 0.118,-0.226 0.238,-0.45 0.369,-0.67 0.106,-0.177 0.218,-0.351 0.333,-0.524 0.138,-0.21 0.28,-0.417 0.43,-0.62 0.127,-0.171 0.258,-0.338 0.392,-0.504 0.157,-0.193 0.319,-0.383 0.487,-0.569 0.146,-0.163 0.296,-0.323 0.45,-0.479 0.174,-0.177 0.354,-0.35 0.538,-0.518 0.165,-0.153 0.332,-0.303 0.505,-0.449 0.19,-0.16 0.387,-0.314 0.586,-0.466 0.182,-0.139 0.366,-0.278 0.556,-0.411 0.205,-0.143 0.418,-0.279 0.632,-0.414 0.198,-0.125 0.396,-0.25 0.6,-0.367 0.222,-0.127 0.451,-0.245 0.68,-0.362 0.211,-0.109 0.42,-0.219 0.638,-0.319 0.238,-0.11 0.485,-0.208 0.73,-0.308 0.22,-0.09 0.438,-0.183 0.664,-0.264 0.259,-0.093 0.525,-0.172 0.79,-0.253 0.224,-0.069 0.446,-0.144 0.675,-0.205 0.286,-0.076 0.581,-0.134 0.874,-0.196 0.218,-0.047 0.432,-0.101 0.654,-0.14 0.341,-0.059 0.69,-0.098 1.039,-0.138 0.183,-0.022 0.361,-0.054 0.546,-0.07 0.538,-0.047 1.085,-0.073 1.639,-0.073 0.011,0 0.021,10e-4 0.032,10e-4 0.4,10e-4 0.791,0.026 1.179,0.063 0.046,0.004 0.092,0.01 0.138,0.015 l -11.7,8.569 -5.843,4.28 C -0.004,0.093 -0.005,0.046 0,0" />
      </g>
      <g
         transform="translate(279.6206,349.3247)"
         id="g56">
        <path
           inkscape:connector-curvature="0"
           id="path58"
           style="fill:#104076;fill-opacity:1;fill-rule:nonzero;stroke:none"
           d="M 0,0 C 0.016,0.255 0.034,0.51 0.057,0.764 0.075,0.962 0.098,1.16 0.121,1.358 0.149,1.611 0.179,1.864 0.214,2.115 0.242,2.311 0.275,2.505 0.307,2.7 0.347,2.949 0.389,3.198 0.436,3.444 0.473,3.637 0.515,3.828 0.556,4.019 0.608,4.264 0.661,4.51 0.72,4.753 0.766,4.941 0.816,5.127 0.866,5.314 0.93,5.556 0.995,5.798 1.065,6.037 1.12,6.221 1.178,6.402 1.236,6.584 1.312,6.822 1.387,7.06 1.469,7.295 1.532,7.476 1.6,7.654 1.667,7.833 1.752,8.064 1.838,8.296 1.931,8.524 2.002,8.702 2.079,8.877 2.153,9.053 2.25,9.278 2.346,9.504 2.449,9.727 2.528,9.9 2.612,10.07 2.695,10.241 c 0.107,0.22 0.213,0.441 0.326,0.657 0.087,0.169 0.179,0.334 0.27,0.5 0.116,0.215 0.232,0.43 0.355,0.641 0.095,0.164 0.194,0.324 0.292,0.486 0.127,0.207 0.252,0.415 0.383,0.619 0.104,0.161 0.212,0.317 0.318,0.476 0.135,0.199 0.268,0.399 0.408,0.595 0.111,0.156 0.227,0.308 0.342,0.462 0.142,0.192 0.284,0.384 0.431,0.572 0.12,0.152 0.245,0.301 0.368,0.451 0.149,0.182 0.297,0.365 0.451,0.544 0.129,0.149 0.262,0.293 0.394,0.439 0.156,0.173 0.311,0.348 0.471,0.517 0.137,0.144 0.279,0.283 0.419,0.425 0.162,0.164 0.323,0.329 0.489,0.489 0.146,0.14 0.297,0.276 0.446,0.413 0.167,0.153 0.332,0.308 0.503,0.458 0.155,0.136 0.314,0.265 0.472,0.397 0.172,0.145 0.343,0.29 0.519,0.431 0.163,0.129 0.331,0.253 0.497,0.38 0.176,0.134 0.351,0.27 0.53,0.4 0.174,0.125 0.352,0.244 0.529,0.366 0.178,0.123 0.355,0.248 0.536,0.367 0.182,0.119 0.37,0.232 0.556,0.347 0.181,0.113 0.361,0.228 0.545,0.337 0.192,0.113 0.388,0.218 0.582,0.326 0.185,0.103 0.366,0.208 0.552,0.306 0.203,0.107 0.41,0.206 0.615,0.308 0.184,0.091 0.366,0.185 0.552,0.272 0.212,0.1 0.428,0.191 0.644,0.285 0.184,0.08 0.367,0.165 0.554,0.242 0.22,0.09 0.444,0.172 0.666,0.256 0.187,0.072 0.373,0.147 0.561,0.214 0.229,0.082 0.462,0.154 0.694,0.23 0.187,0.061 0.372,0.126 0.561,0.183 0.234,0.071 0.472,0.133 0.709,0.197 0.191,0.052 0.381,0.109 0.574,0.158 0.234,0.058 0.472,0.107 0.709,0.16 0.199,0.044 0.396,0.093 0.597,0.133 0.234,0.047 0.471,0.083 0.708,0.124 0.207,0.035 0.412,0.076 0.621,0.107 0.223,0.033 0.449,0.056 0.674,0.084 0.225,0.028 0.449,0.061 0.677,0.083 0.187,0.019 0.377,0.028 0.566,0.042 0.267,0.021 0.534,0.046 0.804,0.06 0.035,10e-4 0.071,10e-4 0.106,0.002 0.422,0.019 0.846,0.032 1.273,0.032 0.023,0 0.045,-0.002 0.068,-0.002 0.518,-0.001 1.033,-0.019 1.546,-0.045 0.167,-0.009 0.333,-0.022 0.499,-0.034 0.39,-0.026 0.778,-0.06 1.165,-0.102 0.159,-0.017 0.319,-0.033 0.477,-0.052 0.485,-0.059 0.967,-0.128 1.446,-0.21 0.043,-0.007 0.087,-0.013 0.13,-0.02 0.018,-0.003 0.036,-0.005 0.054,-0.008 L 0.935,123.005 -26.78,36.749 -50.928,-38.411 -0.03,-0.397 C -0.023,-0.264 -0.009,-0.133 0,0" />
      </g>
      <g
         transform="translate(305.1973,347.2622)"
         id="g60">
        <path
           inkscape:connector-curvature="0"
           id="path62"
           style="fill:#104076;fill-opacity:1;fill-rule:nonzero;stroke:none"
           d="M 0,0 -7.4,0 -21.448,0.002 -3.845,-12.893 0,0 z" />
      </g>
      <g
         transform="translate(311.542,372.7939)"
         id="g64">
        <path
           inkscape:connector-curvature="0"
           id="path66"
           style="fill:#bdc5de;fill-opacity:1;fill-rule:nonzero;stroke:none"
           d="m 0,0 c -0.106,0.016 -0.213,0.031 -0.32,0.046 -0.498,0.071 -0.999,0.128 -1.504,0.173 -0.177,0.016 -0.355,0.034 -0.533,0.047 -0.669,0.047 -1.342,0.078 -2.02,0.078 -0.228,0 -0.453,-0.01 -0.679,-0.016 C -5.244,0.323 -5.433,0.323 -5.62,0.314 -5.825,0.304 -6.028,0.286 -6.232,0.271 -6.444,0.256 -6.657,0.244 -6.867,0.224 -7.065,0.205 -7.261,0.178 -7.458,0.154 -7.671,0.129 -7.884,0.105 -8.095,0.075 -8.291,0.046 -8.485,0.011 -8.679,-0.021 c -0.209,-0.036 -0.418,-0.069 -0.625,-0.11 -0.193,-0.037 -0.384,-0.081 -0.575,-0.122 -0.205,-0.045 -0.412,-0.09 -0.615,-0.14 -0.189,-0.045 -0.375,-0.097 -0.562,-0.147 -0.203,-0.054 -0.405,-0.108 -0.606,-0.168 -0.186,-0.055 -0.37,-0.114 -0.554,-0.173 -0.197,-0.063 -0.393,-0.127 -0.588,-0.195 -0.184,-0.064 -0.367,-0.132 -0.549,-0.199 -0.19,-0.072 -0.38,-0.144 -0.569,-0.22 -0.182,-0.072 -0.362,-0.148 -0.541,-0.225 -0.185,-0.079 -0.369,-0.16 -0.551,-0.243 -0.178,-0.082 -0.356,-0.165 -0.532,-0.251 -0.179,-0.087 -0.357,-0.176 -0.533,-0.266 -0.175,-0.091 -0.35,-0.182 -0.524,-0.276 -0.172,-0.094 -0.342,-0.191 -0.512,-0.288 -0.172,-0.099 -0.343,-0.198 -0.512,-0.3 -0.166,-0.1 -0.33,-0.204 -0.493,-0.308 -0.169,-0.108 -0.338,-0.216 -0.504,-0.327 -0.157,-0.105 -0.312,-0.214 -0.466,-0.323 -0.167,-0.117 -0.334,-0.234 -0.497,-0.354 -0.15,-0.111 -0.296,-0.226 -0.443,-0.34 -0.163,-0.126 -0.326,-0.25 -0.486,-0.38 -0.14,-0.113 -0.276,-0.231 -0.413,-0.348 -0.162,-0.137 -0.325,-0.273 -0.484,-0.414 -0.126,-0.112 -0.247,-0.229 -0.371,-0.343 -0.163,-0.152 -0.328,-0.302 -0.487,-0.457 -0.105,-0.103 -0.207,-0.211 -0.311,-0.316 -0.171,-0.173 -0.344,-0.345 -0.51,-0.523 -0.033,-0.035 -0.064,-0.072 -0.096,-0.107 -0.467,-0.506 -0.915,-1.029 -1.34,-1.571 -0.017,-0.021 -0.035,-0.041 -0.051,-0.062 -0.161,-0.206 -0.314,-0.418 -0.469,-0.629 -0.076,-0.104 -0.155,-0.206 -0.23,-0.312 -0.139,-0.195 -0.271,-0.397 -0.405,-0.597 -0.084,-0.126 -0.171,-0.25 -0.252,-0.377 -0.125,-0.194 -0.244,-0.393 -0.363,-0.591 -0.084,-0.138 -0.169,-0.274 -0.25,-0.414 -0.114,-0.197 -0.222,-0.397 -0.331,-0.597 -0.079,-0.145 -0.16,-0.29 -0.236,-0.437 -0.103,-0.199 -0.201,-0.401 -0.3,-0.603 -0.074,-0.154 -0.149,-0.306 -0.221,-0.462 -0.093,-0.201 -0.181,-0.404 -0.269,-0.608 -0.069,-0.161 -0.137,-0.321 -0.203,-0.483 -0.083,-0.203 -0.162,-0.409 -0.239,-0.615 -0.063,-0.167 -0.125,-0.334 -0.185,-0.503 -0.072,-0.205 -0.141,-0.412 -0.208,-0.62 -0.056,-0.173 -0.111,-0.347 -0.163,-0.523 -0.063,-0.207 -0.122,-0.415 -0.179,-0.624 -0.049,-0.18 -0.096,-0.361 -0.141,-0.543 -0.052,-0.208 -0.102,-0.417 -0.149,-0.627 -0.041,-0.186 -0.079,-0.374 -0.117,-0.562 -0.041,-0.209 -0.082,-0.419 -0.118,-0.631 -0.034,-0.192 -0.063,-0.385 -0.092,-0.579 -0.031,-0.21 -0.062,-0.42 -0.088,-0.632 -0.007,-0.059 -0.012,-0.118 -0.019,-0.177 l 10.134,7.569 L 0,0 z" />
      </g>
      <g
         transform="translate(315.5586,371.9038)"
         id="g68">
        <path
           inkscape:connector-curvature="0"
           id="path70"
           style="fill:#bdc5de;fill-opacity:1;fill-rule:nonzero;stroke:none"
           d="m 0,0 19.987,-61.016 c 3.763,6.546 5.867,13.83 5.869,21.529 C 25.858,-20.348 14.775,-4.409 0,0" />
      </g>
      <g
         transform="translate(307.6841,348.6021)"
         id="g72">
        <path
           inkscape:connector-curvature="0"
           id="path74"
           style="fill:#104076;fill-opacity:1;fill-rule:nonzero;stroke:none"
           d="m 0,0 c 0.045,-0.049 0.085,-0.103 0.13,-0.153 0.09,-0.1 0.176,-0.203 0.261,-0.308 0.114,-0.139 0.225,-0.281 0.332,-0.427 0.081,-0.111 0.159,-0.223 0.235,-0.337 0.1,-0.15 0.195,-0.303 0.288,-0.46 0.07,-0.119 0.139,-0.239 0.205,-0.362 0.086,-0.162 0.165,-0.327 0.242,-0.494 0.058,-0.126 0.118,-0.251 0.171,-0.381 0.072,-0.174 0.135,-0.352 0.197,-0.531 0.045,-0.13 0.093,-0.258 0.133,-0.39 0.057,-0.19 0.104,-0.384 0.151,-0.579 0.03,-0.128 0.066,-0.254 0.092,-0.385 0.043,-0.217 0.072,-0.44 0.102,-0.662 0.014,-0.113 0.036,-0.223 0.047,-0.337 0.034,-0.337 0.052,-0.678 0.052,-1.024 0,-0.002 10e-4,-0.003 10e-4,-0.005 l 0,-0.001 C 2.638,-7.109 2.622,-7.378 2.597,-7.645 2.589,-7.733 2.574,-7.819 2.563,-7.906 2.541,-8.084 2.517,-8.262 2.484,-8.437 2.465,-8.537 2.441,-8.636 2.419,-8.735 2.383,-8.895 2.345,-9.053 2.301,-9.209 2.272,-9.311 2.242,-9.41 2.209,-9.51 2.16,-9.663 2.107,-9.814 2.049,-9.964 2.013,-10.06 1.977,-10.156 1.937,-10.25 1.872,-10.405 1.8,-10.558 1.726,-10.709 1.686,-10.793 1.647,-10.877 1.604,-10.96 1.511,-11.136 1.411,-11.307 1.308,-11.478 1.275,-11.531 1.246,-11.587 1.212,-11.64 1.071,-11.863 0.92,-12.082 0.76,-12.294 0.731,-12.333 0.699,-12.369 0.67,-12.407 0.537,-12.579 0.4,-12.748 0.255,-12.913 c -0.057,-0.065 -0.119,-0.128 -0.178,-0.192 -0.123,-0.134 -0.248,-0.266 -0.379,-0.394 -0.07,-0.068 -0.141,-0.134 -0.213,-0.201 -0.129,-0.12 -0.261,-0.238 -0.396,-0.353 -0.076,-0.064 -0.152,-0.127 -0.23,-0.19 -0.141,-0.114 -0.287,-0.225 -0.435,-0.333 -0.075,-0.055 -0.15,-0.111 -0.227,-0.165 -0.167,-0.116 -0.339,-0.228 -0.513,-0.337 -0.063,-0.039 -0.124,-0.081 -0.187,-0.119 -0.468,-0.282 -0.957,-0.538 -1.469,-0.764 L 25.766,-37.744 6.389,21.412 0,0 z" />
      </g>
      <g
         transform="translate(279.1084,281.6211)"
         id="g76">
        <path
           inkscape:connector-curvature="0"
           id="path78"
           style="fill:#bdc5de;fill-opacity:1;fill-rule:nonzero;stroke:none"
           d="M 0,0 C 23.225,-0.006 43.412,10.352 54.107,25.603 L -49.684,25.595 C -36.604,9.809 -19.148,-0.002 0,0" />
      </g>
      <g
         transform="translate(305.1978,335.6333)"
         id="g80">
        <path
           inkscape:connector-curvature="0"
           id="path82"
           style="fill:#bdc5de;fill-opacity:1;fill-rule:nonzero;stroke:none"
           d="m 0,0 c 0.282,0.194 0.551,0.398 0.805,0.613 0.052,0.044 0.1,0.09 0.151,0.134 0.235,0.209 0.46,0.424 0.668,0.65 0.023,0.026 0.049,0.05 0.072,0.075 0.219,0.244 0.417,0.498 0.602,0.759 0.041,0.058 0.081,0.115 0.12,0.173 0.177,0.263 0.339,0.532 0.479,0.809 0.02,0.039 0.036,0.079 0.055,0.118 0.125,0.258 0.233,0.523 0.325,0.792 0.018,0.052 0.038,0.104 0.055,0.156 0.092,0.291 0.163,0.587 0.214,0.887 0.011,0.064 0.019,0.129 0.029,0.193 0.044,0.312 0.074,0.626 0.073,0.945 l 0,10e-4 C 3.648,6.683 3.614,7.051 3.566,7.413 3.554,7.509 3.538,7.604 3.522,7.699 3.47,8.006 3.404,8.308 3.32,8.601 3.306,8.651 3.295,8.704 3.28,8.754 3.177,9.088 3.05,9.41 2.908,9.721 2.873,9.799 2.833,9.874 2.795,9.95 2.672,10.199 2.537,10.438 2.391,10.668 2.363,10.711 2.338,10.755 2.31,10.797 L -1.111,-0.669 c 0.018,0.009 0.035,0.02 0.052,0.029 0.306,0.161 0.596,0.336 0.876,0.52 C -0.122,-0.08 -0.06,-0.041 0,0" />
      </g>
    </g>
  </g>
</svg>
